<svg width="93" height="105" viewBox="0 0 93 105" fill="none" xmlns="http://www.w3.org/2000/svg">
<path d="M92.9953 30.87C92.9945 29.1045 92.6187 27.5444 91.8585 26.2055C91.1119 24.8888 89.9937 23.7853 88.4938 22.9128C76.1129 15.7414 63.72 8.59196 51.3432 1.41328C48.0064 -0.521842 44.7712 -0.451294 41.4592 1.51161C36.5313 4.43111 11.8587 18.6309 4.5066 22.9088C1.47879 24.6695 0.00545813 27.3642 0.00473038 30.8667C0 45.2888 0.00473038 59.7105 0 74.1329C0.000727751 75.8597 0.360601 77.3895 1.08726 78.7083C1.8343 80.0648 2.96813 81.1987 4.50259 82.0909C11.8551 86.3687 36.5309 100.567 41.4578 103.488C44.7712 105.452 48.0064 105.522 51.3443 103.586C63.7215 96.407 76.1151 89.2579 88.4978 82.0865C90.0322 81.1946 91.1661 80.06 91.9131 78.7046C92.6387 77.3858 92.9993 75.856 93 74.1289C93 74.1289 93 45.2925 92.9953 30.87Z" fill="#5C8DBC"/>
<path d="M46.6423 52.3593L1.08726 78.7083C1.8343 80.0648 2.96813 81.1987 4.50259 82.0909C11.8551 86.3687 36.5309 100.567 41.4578 103.488C44.7712 105.452 48.0064 105.522 51.3443 103.586C63.7215 96.407 76.1151 89.2579 88.4978 82.0865C90.0322 81.1946 91.1661 80.06 91.9131 78.7046L46.6423 52.3593Z" fill="#1A4674"/>
<path d="M33.1494 60.1641C35.8002 64.813 40.7835 67.9485 46.5 67.9485C52.2518 67.9485 57.2634 64.7731 59.9008 60.0746L46.6423 52.3593L33.1494 60.1641Z" fill="#1A4674"/>
<path d="M92.9953 30.87C92.9945 29.1045 92.6187 27.5444 91.8585 26.2055L46.6423 52.3593L91.9131 78.7046C92.6387 77.3858 92.9993 75.856 93 74.1289C93 74.1289 93 45.2925 92.9953 30.87Z" fill="#1B598E"/>
<path d="M90.506 54.2425H86.9684V57.7969H83.4301V54.2425H79.8929V50.6892H83.4301V47.1355H86.9684V50.6892H90.506V54.2425ZM77.5975 54.2425H74.0603V57.7969H70.5227V54.2425H66.9851V50.6892H70.5227V47.1355H74.0603V50.6892H77.5975V54.2425Z" fill="white"/>
<path d="M59.9008 60.0746C57.2634 64.7731 52.2518 67.9485 46.5 67.9485C40.7835 67.9485 35.8002 64.813 33.1494 60.1641C31.8178 57.8314 31.1184 55.1887 31.1212 52.4997C31.1212 43.9678 38.0068 37.0512 46.5 37.0512C52.1797 37.0512 57.1368 40.1476 59.8007 44.7489L73.2427 36.9733C67.8999 27.7085 57.925 21.4755 46.5 21.4755C29.443 21.4755 15.6161 35.3657 15.6161 52.4997C15.6161 58.1208 17.1047 63.3921 19.7064 67.939C25.0357 77.2527 35.039 83.5242 46.5 83.5242C57.9821 83.5242 68.001 77.2275 73.3227 67.8864L59.9008 60.0746Z" fill="white"/>
</svg>
