<svg width="234" height="55" viewBox="0 0 234 55" fill="none" xmlns="http://www.w3.org/2000/svg">
<path d="M72.4553 54.7184V1.34954H75.2289V9.74508C75.5565 9.37317 75.8591 8.97808 76.1346 8.56261C77.268 6.10528 79.0486 4.0363 81.2676 2.5982C83.4866 1.16011 86.0521 0.412483 88.6633 0.442969C94.9843 0.245891 100.117 2.68967 103.136 8.56261C105.056 12.211 106.114 16.2865 106.219 20.4487C106.324 24.6109 105.474 28.739 103.739 32.488C100.928 39.0704 93.9843 42.3419 86.5501 41.1397C84.2366 40.9339 82.0093 40.1263 80.0713 38.7906C78.1334 37.455 76.5465 35.6337 75.4554 33.4931V54.7184H72.4553ZM75.2289 20.2297C75.4742 22.8311 75.5686 24.6836 75.8516 26.4968C76.946 33.631 80.9838 37.8682 87.3237 38.6368C90.3005 39.1479 93.3549 38.565 95.9664 36.9873C98.5778 35.4097 100.585 32.935 101.645 29.985C102.863 26.9507 103.45 23.6805 103.365 20.3913C103.28 17.1022 102.527 13.8695 101.154 10.9078C100.023 8.26383 98.0979 6.07623 95.671 4.67544C93.244 3.27465 90.4465 2.73674 87.7011 3.14295C85.1234 3.33802 82.6679 4.36715 80.6762 6.08725C78.6844 7.80736 77.2553 10.133 76.5875 12.7407C75.9965 15.2075 75.5429 17.708 75.2289 20.2297ZM162.798 27.4822C162.378 31.2397 160.665 34.7099 157.979 37.2475C155.292 39.7851 151.815 41.2172 148.194 41.2777C136.571 41.8886 131.118 33.8281 130.25 24.526C129.647 19.4744 130.433 14.3481 132.514 9.74508C133.963 6.58768 136.337 3.99396 139.292 2.33934C142.246 0.684728 145.628 0.0550731 148.948 0.541515C152.105 0.820927 155.097 2.13036 157.501 4.28439C159.905 6.43842 161.6 9.32787 162.345 12.5436C162.936 15.4724 163.37 18.4331 163.647 21.4121H133.099C132.533 29.8471 136.873 36.6266 143.024 38.2624C150.684 40.2331 157.232 36.7646 159.609 29.1573C160.137 27.2062 161.1 26.9303 162.798 27.4822ZM133.099 18.7122H160.402C160.232 9.72537 154.873 3.22178 147.609 3.12324C139.382 2.98528 133.457 9.25238 133.099 18.7122ZM168.421 27.6792H171.1C171.199 29.7384 171.84 31.7293 172.951 33.433C174.063 35.1366 175.603 36.4871 177.402 37.3361C179.661 38.3979 182.12 38.9138 184.596 38.8456C187.073 38.7773 189.502 38.1266 191.705 36.9419C192.905 36.3768 193.91 35.4409 194.585 34.2603C195.26 33.0797 195.571 31.7113 195.478 30.3398C195.547 29.017 195.201 27.7068 194.493 26.6078C193.785 25.5089 192.753 24.6811 191.554 24.2501C188.61 23.107 185.478 22.4764 182.478 21.4713C179.356 20.5428 176.304 19.3769 173.345 17.983C168.515 15.5195 168.213 5.92176 173.685 2.88675C176.487 1.2353 179.64 0.343045 182.857 0.291407C186.074 0.23977 189.252 1.03039 192.101 2.59113C193.827 3.58741 195.221 5.10955 196.097 6.95459C196.974 8.79963 197.291 10.8799 197.007 12.918H194.705C194.705 12.7998 194.497 12.7013 194.497 12.583C194.214 4.91665 188.063 2.55171 181.459 3.22178C179.487 3.47577 177.573 4.08244 175.798 5.01519C174.732 5.52436 173.844 6.36661 173.256 7.42565C172.668 8.48469 172.409 9.7083 172.515 10.9276C172.519 12.1474 172.883 13.3362 173.559 14.3312C174.234 15.3262 175.188 16.0786 176.289 16.4852C179.195 17.5888 182.233 18.2983 185.214 19.1654C187.61 19.8552 190.101 20.3085 192.422 21.1362C194.06 21.6971 195.496 22.7643 196.54 24.1966C197.585 25.629 198.188 27.3589 198.271 29.1573C198.551 31.1278 198.229 33.1404 197.352 34.9093C196.475 36.6782 195.086 38.1134 193.384 39.0113C187.082 42.736 176.704 41.7506 172.081 37.0405C170.91 35.8098 169.983 34.3489 169.355 32.7422C168.726 31.1355 168.409 29.4147 168.421 27.6792ZM232.234 12.918H229.725C229.725 12.5633 229.593 12.248 229.555 11.9524C229.514 9.9876 228.828 8.0971 227.612 6.59742C226.396 5.09774 224.724 4.07995 222.875 3.71447C219.387 2.66914 215.666 2.85619 212.29 4.24659C210.956 4.64622 209.781 5.4859 208.941 6.64027C208.101 7.79463 207.641 9.20178 207.63 10.6516C207.583 12.0755 208.008 13.4727 208.833 14.6073C209.658 15.7419 210.832 16.5444 212.158 16.8793C215.932 18.1012 219.8 18.8501 223.63 19.9538C224.871 20.2649 226.094 20.6532 227.291 21.1165C229.078 21.7844 230.631 23 231.746 24.6042C232.862 26.2085 233.488 28.127 233.543 30.1089C233.598 32.0907 233.079 34.0438 232.055 35.713C231.03 37.3821 229.547 38.6896 227.8 39.4645C225.137 40.7274 222.251 41.3956 219.327 41.4261C216.403 41.4567 213.505 40.8489 210.818 39.6419C208.609 38.6467 206.745 36.9686 205.477 34.8333C204.208 32.6981 203.597 30.2083 203.724 27.6989H204.78H206.177C206.631 29.9856 207.611 32.1223 209.034 33.924C210.456 35.7256 212.278 37.1379 214.341 38.0386C216.403 38.9392 218.645 39.3011 220.872 39.0929C223.099 38.8846 225.244 38.1125 227.121 36.8434C228.264 36.223 229.213 35.2731 229.855 34.1064C230.497 32.9397 230.806 31.6051 230.744 30.261C230.8 28.9374 230.442 27.6306 229.724 26.5387C229.006 25.4469 227.966 24.6295 226.762 24.2107C223.819 23.0676 220.687 22.4566 217.687 21.4515C214.547 20.5374 211.476 19.3847 208.498 18.0027C203.78 15.5786 203.403 6.05971 208.781 3.0247C211.617 1.30407 214.832 0.379775 218.112 0.341785C221.392 0.303795 224.626 1.1534 227.498 2.80791C229.141 3.83221 230.463 5.33319 231.304 7.12817C232.145 8.92315 232.468 10.9347 232.234 12.918ZM67.8702 40.312C66.8823 40.7027 65.7916 40.7019 64.8042 40.3097C63.8169 39.9175 63.0012 39.1611 62.5115 38.1835C59.436 33.3748 56.0396 28.7829 52.7754 24.0924L51.3602 22.1216C47.4733 27.561 43.5864 32.7836 40.0391 38.2032C39.5769 39.1376 38.8054 39.8646 37.8681 40.2489C36.9309 40.6332 35.8919 40.6486 34.9446 40.2923L49.53 19.8552L35.9635 1.38895C36.94 1.02065 38.0084 1.0156 38.9881 1.37465C39.9678 1.7337 40.7989 2.43485 41.341 3.35973C44.4921 8.16845 47.9827 12.7604 51.4546 17.6282C54.9452 12.7998 58.3982 8.18816 61.6247 3.41886C62.0894 2.49971 62.8614 1.79104 63.7938 1.42766C64.7262 1.06428 65.7539 1.07155 66.6815 1.44807L61.4172 8.73998C59.0586 11.9918 56.7378 15.2633 54.2848 18.4362C54.0872 18.6211 53.9291 18.8474 53.8208 19.1004C53.7126 19.3534 53.6566 19.6274 53.6566 19.9045C53.6566 20.1816 53.7126 20.4556 53.8208 20.7086C53.9291 20.9616 54.0872 21.1879 54.2848 21.3727C58.7944 27.6201 63.2663 33.8872 67.8702 40.312ZM129.797 1.19187V3.95097C127.888 3.82024 125.975 4.1089 124.18 4.79834C122.385 5.48779 120.748 6.56268 119.376 7.95364C118.003 9.34461 116.925 11.0207 116.211 12.8738C115.497 14.7269 115.163 16.7158 115.23 18.7122C115.23 25.2026 115.23 31.6931 115.23 38.1835C115.23 38.8733 115.23 39.5631 115.23 40.3908H112.532V1.34954H115.174V9.35092C118.438 3.5174 123.476 1.34953 129.797 1.19187ZM0 19.599C0.39624 17.6282 0.641531 15.4801 1.18872 13.4699C4.45298 1.34953 17.7553 -3.69568 26.9066 3.81302C32.2652 8.20787 33.6049 14.4355 33.3407 21.4515H3.15105C2.66047 33.9857 11.3211 41.5536 22.397 37.6908C24.1936 37.0196 25.802 35.8916 27.0768 34.4086C28.3517 32.9257 29.2529 31.1345 29.6991 29.1967C30.284 27.226 31.2275 26.8909 33.02 27.4625C32.7247 29.8617 31.9125 32.1598 30.6445 34.184C29.3765 36.2082 27.6856 37.9058 25.699 39.1492C22.4166 41.024 18.6507 41.7667 14.9398 41.2712C11.2289 40.7756 7.76309 39.0671 5.0379 36.3901C2.34188 33.2239 0.711731 29.2234 0.396239 24.999C0.396239 24.3289 0.150948 23.6588 0.0188685 23.0282C0.0062895 21.8588 0 20.7158 0 19.599ZM3.18879 18.7516H30.4916C30.3218 9.66625 24.831 3.22178 17.51 3.16266C9.3588 3.04441 3.52842 9.35092 3.16992 18.7122L3.18879 18.7516Z" fill="white"/>
</svg>
