<svg width="50" height="49" viewBox="0 0 50 49" fill="#000" xmlns="http://www.w3.org/2000/svg">
<path d="M24.9999 0C19.0636 0.000246162 13.3211 2.11277 8.79992 5.95958C4.27871 9.80638 1.27381 15.1364 0.322899 20.9961C-0.628014 26.8557 0.537109 32.8625 3.60979 37.9416C6.68247 43.0208 11.4622 46.8409 17.0937 48.7184C18.3437 48.9372 18.8125 48.1872 18.8125 47.5309C18.8125 46.9372 18.7812 44.9684 18.7812 42.8747C12.5 44.0309 10.875 41.3435 10.375 39.9373C9.82019 38.5696 8.94069 37.3576 7.81251 36.406C6.93752 35.9372 5.68753 34.781 7.78124 34.7498C8.5807 34.8366 9.34747 35.1147 10.0166 35.5608C10.6857 36.0068 11.2374 36.6076 11.625 37.3122C11.9669 37.9265 12.4267 38.4672 12.978 38.9034C13.5292 39.3397 14.1612 39.6629 14.8375 39.8545C15.5139 40.0461 16.2215 40.1023 16.9196 40.02C17.6178 39.9377 18.2929 39.7184 18.9061 39.3747C19.0144 38.1038 19.5808 36.9155 20.4999 36.0311C14.9375 35.4061 9.125 33.2497 9.125 23.6874C9.08987 21.2028 10.0067 18.7989 11.6875 16.9687C10.9232 14.8093 11.0126 12.4394 11.9375 10.3438C11.9375 10.3438 14.0311 9.68748 18.8124 12.9062C22.9031 11.7812 27.2217 11.7812 31.3123 12.9062C36.0935 9.65626 38.1873 10.3438 38.1873 10.3438C39.1123 12.4394 39.2017 14.8093 38.4373 16.9687C40.1231 18.7958 41.0408 21.2018 40.9998 23.6874C40.9998 33.281 35.156 35.4061 29.5936 36.0311C30.1902 36.6358 30.6497 37.3618 30.9409 38.1598C31.2321 38.9579 31.3481 39.8092 31.2811 40.656C31.2811 43.9998 31.2498 46.6872 31.2498 47.531C31.2498 48.1873 31.7186 48.9685 32.9686 48.7185C38.5902 46.8257 43.3562 42.9966 46.4158 37.9149C49.4754 32.8331 50.6294 26.8294 49.6719 20.9754C48.7144 15.1215 45.7077 9.79836 41.1884 5.95624C36.6692 2.11411 30.9316 0.00308725 24.9999 0Z" fill="black"/>
</svg>
