<svg width="93" height="105" viewBox="0 0 93 105" fill="none" xmlns="http://www.w3.org/2000/svg">
<path d="M46.4998 0C35.4583 0.000530018 24.7773 4.54907 16.3678 12.8317C7.95839 21.1144 2.36929 32.5907 0.600592 45.2072C-1.16811 57.8237 0.999022 70.7571 6.71421 81.6932C12.4294 92.6293 21.3197 100.854 31.7944 104.897C34.1194 105.368 34.9912 103.753 34.9912 102.34C34.9912 101.062 34.9331 96.8228 34.9331 92.3147C23.25 94.8042 20.2275 89.018 19.2975 85.9901C18.2656 83.0453 16.6297 80.4357 14.5313 78.3868C12.9038 77.3775 10.5788 74.888 14.4731 74.8208C15.9601 75.0076 17.3863 75.6066 18.6308 76.567C19.8754 77.5274 20.9016 78.8209 21.6225 80.338C22.2585 81.6606 23.1136 82.8248 24.139 83.7641C25.1644 84.7034 26.3397 85.3993 27.5978 85.8118C28.8559 86.2243 30.172 86.3454 31.4705 86.1682C32.7691 85.9909 34.0247 85.5188 35.1654 84.7788C35.3667 82.0423 36.4202 79.4838 38.1299 77.5795C27.7837 76.2338 16.9725 71.591 16.9725 51.002C16.9072 45.6523 18.6125 40.4764 21.7387 36.5358C20.3171 31.8863 20.4835 26.7837 22.2037 22.2714C22.2037 22.2714 26.0979 20.8584 34.9911 27.7888C42.5998 25.3664 50.6323 25.3664 58.241 27.7888C67.1339 20.7912 71.0284 22.2714 71.0284 22.2714C72.7489 26.7837 72.9152 31.8863 71.4934 36.5358C74.629 40.4697 76.3358 45.6501 76.2596 51.002C76.2596 71.6583 65.3902 76.2338 55.0441 77.5795C56.1538 78.8816 57.0085 80.4448 57.5501 82.163C58.0917 83.8813 58.3075 85.7143 58.1828 87.5377C58.1828 94.7373 58.1247 100.524 58.1247 102.34C58.1247 103.753 58.9965 105.435 61.3215 104.897C71.7777 100.822 80.6425 92.5773 86.3333 81.6356C92.0242 70.6939 94.1707 57.7671 92.3898 45.1628C90.6088 32.5586 85.0163 21.0971 76.6105 12.8245C68.2047 4.55195 57.5328 0.00664724 46.4998 0Z" fill="black"/>
</svg>
