<svg width="93" height="105" viewBox="0 0 93 105" fill="none" xmlns="http://www.w3.org/2000/svg">
<path d="M8.46413 94.5044L0 0H93L84.5271 94.4869L46.4429 105L8.46413 94.5044Z" fill="#E44D26"/>
<path d="M46.5 96.9675L77.2759 88.4756L84.5139 7.72625H46.5V96.9675Z" fill="#F16529"/>
<path d="M46.5 42.7787H31.0923L30.0288 30.9094H46.5V19.32H17.3062L20.444 54.3681H46.5V42.7787ZM46.5 72.8788L46.4473 72.8919L33.483 69.405L32.6524 60.1606H20.967L22.5974 78.3606L46.4473 84.9494L46.5 84.9362V72.8788Z" fill="#EBEBEB"/>
<path d="M46.4605 42.7787V54.3681H60.7959L59.4423 69.4006L46.4561 72.8875V84.945L70.3235 78.3606L73.2372 45.885L73.5228 42.7744L46.4605 42.7787ZM46.4605 19.32V30.9094H74.5819L74.8149 28.3019L75.3466 22.4262L75.6235 19.3156L46.4605 19.32Z" fill="white"/>
</svg>
