<svg width="93" height="105" viewBox="0 0 93 105" fill="none" xmlns="http://www.w3.org/2000/svg">
<path d="M0 0H93V105H0V0Z" fill="#F7DF1E"/>
<path d="M24.4532 87.7455L31.5699 82.8827C32.9431 85.6312 34.192 87.9568 37.188 87.9568C40.0598 87.9568 41.8707 86.6886 41.8707 81.7552V48.2053H50.6102V81.8947C50.6102 92.1145 45.3041 96.7665 37.5626 96.7665C30.5712 96.7665 26.513 92.6785 24.4528 87.7447M55.3572 86.6882L62.4731 82.0366C64.3466 85.4905 66.7813 88.0277 71.0883 88.0277C74.7099 88.0277 77.0189 85.9835 77.0189 83.1641C77.0189 79.7811 74.6467 78.5827 70.6513 76.6098L68.4669 75.5516C62.1614 72.5218 57.979 68.7155 57.979 60.6806C57.979 53.2797 62.973 47.6409 70.7766 47.6409C76.3327 47.6409 80.328 49.8262 83.1994 55.5352L76.3944 60.4693C74.8959 57.4387 73.2735 56.2406 70.7763 56.2406C68.2166 56.2406 66.5935 58.0732 66.5935 60.4693C66.5935 63.4294 68.2166 64.6283 71.962 66.4609L74.1468 67.5179C81.5759 71.1129 85.7584 74.7776 85.7584 83.0234C85.7584 91.9049 79.5782 96.7678 71.2754 96.7678C63.1601 96.7678 57.9161 92.3979 55.3568 86.6886" fill="black"/>
</svg>
