<svg width="93" height="105" viewBox="0 0 93 105" fill="none" xmlns="http://www.w3.org/2000/svg">
<path d="M42.304 1.1202C44.8451 -0.370033 48.1549 -0.376764 50.6939 1.1202C63.4671 8.51491 76.2443 15.898 89.0154 23.2972C91.4174 24.6835 93.0242 27.4224 92.9997 30.2581V74.7475C93.0176 77.7007 91.2521 80.505 88.7179 81.8599C75.9866 89.2139 63.262 96.5768 50.5329 103.931C47.9392 105.45 44.563 105.333 42.0503 103.689C38.2335 101.422 34.4101 99.1665 30.5929 96.9017C29.8129 96.4253 28.9336 96.0461 28.3828 95.2713C28.8697 94.5989 29.7403 94.5151 30.4476 94.2216C32.0409 93.7025 33.5041 92.8693 34.9678 92.0608C35.3379 91.8013 35.7898 91.9008 36.1446 92.133C39.4084 94.0503 42.6434 96.0233 45.9182 97.9223C46.6168 98.3355 47.3242 97.7869 47.9213 97.4459C60.4146 90.2116 72.9232 83.0046 85.4143 75.7681C85.8771 75.54 86.1329 75.0366 86.0954 74.5172C86.1041 59.8411 86.0975 45.1624 86.0997 30.4863C86.1527 29.8969 85.8198 29.355 85.2997 29.1138C72.6126 21.7935 59.9321 14.462 47.2472 7.13986C47.0274 6.98505 46.7671 6.902 46.5004 6.9016C46.2337 6.90119 45.9731 6.98347 45.7529 7.13761C33.068 14.462 20.3897 21.8003 7.70476 29.1202C7.18646 29.3618 6.83861 29.8946 6.9003 30.4863C6.90249 45.1624 6.9003 59.8411 6.9003 74.5194C6.8783 74.7729 6.93263 75.0271 7.05597 75.248C7.17931 75.4688 7.36574 75.6456 7.59015 75.7546C10.9752 77.7213 14.3646 79.6741 17.7518 81.634C19.66 82.6864 22.003 83.3116 24.1054 82.5054C25.9607 81.8236 27.2612 79.8839 27.2258 77.8656C27.2433 63.2752 27.217 48.6825 27.2389 34.0942C27.1925 33.4465 27.7922 32.9114 28.4069 32.9723C30.0333 32.9611 31.662 32.9499 33.2884 32.9768C33.9673 32.9611 34.4345 33.6586 34.3506 34.3111C34.344 48.994 34.3681 63.6772 34.3396 78.36C34.344 82.2731 32.7749 86.5311 29.242 88.4457C24.8898 90.7557 19.5104 90.2658 15.2106 88.0508C11.4884 86.1474 7.93617 83.901 4.27995 81.8618C1.73918 80.5144 -0.0175709 77.6988 0.000314157 74.7479V30.2581C-0.0263309 27.3637 1.64428 24.575 4.12118 23.209C16.8502 15.849 29.5771 8.4835 42.304 1.1202Z" fill="#8CC84B"/>
<path d="M53.4088 31.9383C58.9604 31.5722 64.9038 31.7214 69.8995 34.5235C73.7674 36.6708 75.9118 41.1774 75.9801 45.5801C75.872 46.1739 75.2661 46.5015 74.7128 46.4607C73.102 46.4585 71.4909 46.4832 69.8802 46.4495C69.1969 46.4765 68.7998 45.831 68.714 45.2121C68.2512 43.1056 67.1299 41.0192 65.1947 40.0032C62.2239 38.4793 58.7794 38.556 55.54 38.5877C53.1752 38.7164 50.6322 38.9262 48.6287 40.351C47.0906 41.4302 46.6234 43.6089 47.1723 45.3635C47.6899 46.6234 49.1094 47.0299 50.2708 47.4046C56.9613 49.1974 64.0511 49.019 70.6138 51.3783C73.3309 52.3402 75.9888 54.21 76.9189 57.1246C78.1354 61.031 77.6021 65.7003 74.8895 68.8363C72.6896 71.4171 69.4856 72.8216 66.29 73.5845C62.0388 74.5557 57.6271 74.5804 53.3098 74.1492C49.2503 73.675 45.0258 72.5823 41.8919 69.7484C39.212 67.3644 37.9031 63.6499 38.0331 60.0647C38.0641 59.4593 38.6525 59.0371 39.2186 59.0868C40.8407 59.0733 42.4627 59.0689 44.0848 59.089C44.7327 59.0416 45.213 59.6152 45.2462 60.2408C45.5455 62.2479 46.2817 64.3544 47.99 65.5444C51.2866 67.7234 55.4232 67.5742 59.198 67.6352C62.3254 67.4931 65.836 67.4501 68.3881 65.3323C69.7345 64.1244 70.1335 62.1035 69.7696 60.365C69.3754 58.8972 67.8767 58.2132 66.5897 57.766C59.985 55.6254 52.816 56.4021 46.2752 53.9815C43.6198 53.02 41.052 51.2022 40.0318 48.4072C38.6083 44.4515 39.2606 39.5586 42.2576 36.5283C45.1798 33.5142 49.3981 32.3538 53.4088 31.9383Z" fill="#8CC84B"/>
</svg>
