<svg width="546" height="546" viewBox="0 0 546 546" fill="none" xmlns="http://www.w3.org/2000/svg">
<g clip-path="url(#clip0_105_109)">
<path d="M546 273C546.095 337.442 523.3 399.824 481.68 449.024C480.168 450.818 478.629 452.585 477.061 454.342C458.607 475.095 437.111 492.929 413.307 507.232C407.847 510.51 402.267 513.599 396.568 516.499C395.992 516.792 395.406 517.085 394.83 517.368C394.14 517.718 393.441 518.058 392.742 518.398C378.32 525.457 363.298 531.217 347.853 535.609C346.247 536.062 344.638 536.503 343.026 536.932C322.709 542.307 301.839 545.315 280.831 545.896C279.735 545.924 278.658 545.943 277.619 545.962C277.251 545.972 276.892 545.981 276.533 545.981C275.352 545.991 274.181 546 273 546C250.862 546.016 228.803 543.342 207.31 538.037C205.156 537.508 203.012 536.95 200.877 536.365C189.632 533.295 178.597 529.499 167.843 525.001C162.175 522.639 156.608 520.092 151.142 517.359C149.904 516.735 148.667 516.112 147.448 515.469C146.929 515.214 146.419 514.94 145.909 514.676C116.774 499.299 90.6476 478.8 68.779 454.162C67.2676 452.472 65.7845 450.752 64.3204 449.024C40.2252 420.455 22.2518 387.244 11.5134 351.448C0.774874 315.651 -2.50004 278.031 1.89146 240.917C6.28295 203.803 18.2474 167.986 37.0436 135.684C55.8399 103.382 81.0678 75.2824 111.165 53.1264C112.714 51.9834 114.273 50.8498 115.85 49.7446C116.162 49.5273 116.474 49.31 116.785 49.0928C144.504 29.6767 175.616 15.6268 208.51 7.67043C210.38 7.20756 212.25 6.77304 214.14 6.36685C249.769 -1.4267 286.59 -2.07208 322.471 4.46812C324.351 4.81763 326.23 5.1766 328.101 5.5639C360.701 12.2505 391.793 24.8762 419.825 42.8109C420.448 43.2077 421.072 43.6044 421.695 44.0201C422.952 44.8325 424.208 45.6637 425.446 46.5045C462.58 71.4696 493.001 105.189 514.025 144.688C535.049 184.188 546.03 228.254 546 273Z" fill="#F2F2F2"/>
<path d="M204.042 414.233L116.786 421.979L115.85 422.064V49.7446C116.162 49.5273 116.474 49.31 116.786 49.0928C134.971 36.373 154.642 25.9234 175.362 17.9764L179.821 79.4723L180.227 85.1023L184.639 146.088L185.999 164.849L203.881 412.06L204.042 414.233Z" fill="#CCCCCC"/>
<path d="M419.825 42.8109C420.448 43.2077 421.072 43.6044 421.695 44.0201V422.064L419.825 421.894L333.513 414.233L333.674 412.06L351.556 164.849L352.916 146.088L357.328 85.1023L357.734 79.4723L362.41 14.9819C382.575 21.9716 401.846 31.3123 419.825 42.8109Z" fill="#CCCCCC"/>
<path d="M419.825 42.8109V427.221C419.825 434.599 414.743 440.597 408.489 440.597H128.121C122.944 440.597 118.552 436.479 117.22 430.858C116.929 429.668 116.783 428.447 116.785 427.221V49.0928C116.474 49.3101 116.162 49.5273 115.85 49.7446C114.273 50.8498 112.714 51.9834 111.165 53.1264V427.221C111.081 432.825 113.174 438.243 117.003 442.336C119.01 444.439 121.55 445.96 124.352 446.738C125.58 447.072 126.848 447.24 128.121 447.238H408.489C409.765 447.239 411.036 447.071 412.268 446.738C419.806 444.707 425.445 436.734 425.445 427.221V46.5045C424.208 45.6637 422.952 44.8325 421.695 44.0201C421.072 43.6044 420.448 43.2077 419.825 42.8109Z" fill="#CCCCCC"/>
<path d="M422.637 79.476H113.975V85.1051H422.637V79.476Z" fill="#CCCCCC"/>
<path d="M208.51 7.67044C210.38 7.20757 212.25 6.77305 214.14 6.36685V159.218H208.51V7.67044Z" fill="#CCCCCC"/>
<path d="M322.471 4.46814C324.351 4.81766 326.23 5.17662 328.101 5.56392V159.219H322.471V4.46814Z" fill="#CCCCCC"/>
<path d="M457.818 412.06H88.1724C81.4531 412.06 75.0091 414.729 70.2578 419.48C65.5065 424.232 62.8373 430.676 62.8373 437.395C62.8373 444.114 65.5065 450.559 70.2578 455.31C75.0091 460.061 81.4531 462.73 88.1724 462.73H457.818C461.416 462.731 464.973 461.964 468.25 460.48C471.528 458.996 474.451 456.829 476.824 454.125C477.899 452.902 478.854 451.58 479.677 450.176C480.314 449.1 480.867 447.975 481.33 446.813C482.873 442.97 483.45 438.806 483.01 434.688C482.57 430.57 481.126 426.622 478.805 423.192C476.484 419.761 473.357 416.952 469.698 415.012C466.039 413.071 461.96 412.057 457.818 412.06Z" fill="#CCCCCC"/>
<path d="M422.637 146.087H115.852V164.851H422.637V146.087Z" fill="#CCCCCC"/>
<path d="M266.43 140.458H272.059C273.414 140.458 274.756 140.725 276.008 141.243C277.26 141.762 278.398 142.522 279.356 143.481C280.315 144.439 281.075 145.577 281.593 146.829C282.112 148.081 282.379 149.423 282.379 150.778H256.11C256.11 148.041 257.197 145.416 259.133 143.481C261.068 141.545 263.693 140.458 266.43 140.458Z" fill="#CCCCCC"/>
<path d="M481.68 449.024C473.473 458.747 464.597 467.885 455.116 476.371H90.8835C81.4026 467.885 72.5266 458.747 64.3203 449.024H481.68Z" fill="#3F3D56"/>
<path d="M303.493 354.305H242.167C241.837 354.301 241.508 354.352 241.194 354.456C240.528 354.662 239.946 355.076 239.533 355.637C239.12 356.198 238.898 356.877 238.899 357.573V454.455H306.771V357.573C306.77 357.143 306.685 356.718 306.52 356.321C306.355 355.924 306.114 355.563 305.809 355.26C305.505 354.956 305.144 354.716 304.746 354.552C304.349 354.388 303.923 354.304 303.493 354.305ZM280.283 402.103C280.285 403.675 279.767 405.203 278.81 406.449C277.896 407.658 276.625 408.55 275.178 408.999C273.73 409.448 272.178 409.431 270.74 408.951C269.303 408.471 268.052 407.552 267.164 406.324C266.277 405.095 265.797 403.619 265.792 402.103V390.862C265.81 388.952 266.581 387.127 267.938 385.782C269.295 384.438 271.128 383.684 273.038 383.684C274.948 383.684 276.781 384.438 278.137 385.782C279.494 387.127 280.265 388.952 280.283 390.862V402.103Z" fill="#2F2E41"/>
<path d="M238.691 451.357V460.699C238.691 461.184 238.883 461.648 239.224 461.992C239.566 462.335 240.03 462.529 240.514 462.532H305.156C305.639 462.528 306.102 462.333 306.444 461.99C306.785 461.647 306.977 461.183 306.979 460.699V451.357H238.691Z" fill="#3F3D56"/>
<path d="M405.041 203.116H142.905C140.652 203.119 138.493 204.014 136.899 205.606C135.306 207.197 134.408 209.356 134.403 211.608V388.501C134.405 390.755 135.301 392.916 136.895 394.51C138.489 396.104 140.65 397.001 142.905 397.002H405.041C407.296 397.001 409.457 396.104 411.051 394.51C412.645 392.916 413.541 390.755 413.543 388.501V211.608C413.538 209.356 412.64 207.197 411.046 205.606C409.453 204.014 407.294 203.119 405.041 203.116Z" fill="#3F3D56"/>
<path d="M402.85 209.256H145.087C143.881 209.259 142.725 209.739 141.873 210.593C141.022 211.447 140.543 212.603 140.543 213.809V386.319C140.545 387.523 141.024 388.678 141.876 389.529C142.728 390.381 143.882 390.86 145.087 390.862H402.85C404.054 390.86 405.209 390.381 406.06 389.529C406.912 388.678 407.391 387.523 407.393 386.319V213.809C407.393 212.603 406.915 211.447 406.063 210.593C405.211 209.739 404.056 209.259 402.85 209.256Z" fill="#800080"/>
<path d="M355.41 462.381L353.03 451.073C352.931 450.612 352.719 450.183 352.412 449.825C352.105 449.467 351.713 449.192 351.273 449.024C350.954 448.898 350.614 448.834 350.271 448.835H201.67C201.328 448.834 200.988 448.898 200.669 449.024C200.229 449.192 199.837 449.467 199.53 449.825C199.223 450.183 199.011 450.612 198.912 451.073L196.532 462.381C196.446 462.791 196.452 463.216 196.551 463.623C196.65 464.031 196.838 464.411 197.102 464.737C197.366 465.063 197.7 465.326 198.078 465.506C198.457 465.687 198.871 465.781 199.29 465.781H352.642C353.063 465.784 353.479 465.69 353.858 465.509C354.238 465.327 354.572 465.062 354.834 464.733C355.099 464.408 355.288 464.029 355.387 463.622C355.487 463.215 355.495 462.791 355.41 462.381Z" fill="#2F2E41"/>
<path d="M207.022 450.871H203.221C202.966 450.871 202.76 451.078 202.76 451.332V453.244C202.76 453.499 202.966 453.705 203.221 453.705H207.022C207.276 453.705 207.483 453.499 207.483 453.244V451.332C207.483 451.078 207.276 450.871 207.022 450.871Z" fill="#3F3D56"/>
<path d="M216.468 450.871H212.667C212.413 450.871 212.206 451.078 212.206 451.332V453.244C212.206 453.499 212.413 453.705 212.667 453.705H216.468C216.723 453.705 216.929 453.499 216.929 453.244V451.332C216.929 451.078 216.723 450.871 216.468 450.871Z" fill="#3F3D56"/>
<path d="M225.914 450.871H222.114C221.859 450.871 221.652 451.078 221.652 451.332V453.244C221.652 453.499 221.859 453.705 222.114 453.705H225.914C226.169 453.705 226.376 453.499 226.376 453.244V451.332C226.376 451.078 226.169 450.871 225.914 450.871Z" fill="#3F3D56"/>
<path d="M235.361 450.871H231.56C231.305 450.871 231.099 451.078 231.099 451.332V453.244C231.099 453.499 231.305 453.705 231.56 453.705H235.361C235.615 453.705 235.822 453.499 235.822 453.244V451.332C235.822 451.078 235.615 450.871 235.361 450.871Z" fill="#3F3D56"/>
<path d="M244.807 450.871H241.006C240.752 450.871 240.545 451.078 240.545 451.332V453.244C240.545 453.499 240.752 453.705 241.006 453.705H244.807C245.062 453.705 245.268 453.499 245.268 453.244V451.332C245.268 451.078 245.062 450.871 244.807 450.871Z" fill="#3F3D56"/>
<path d="M254.253 450.871H250.453C250.198 450.871 249.991 451.078 249.991 451.332V453.244C249.991 453.499 250.198 453.705 250.453 453.705H254.253C254.508 453.705 254.715 453.499 254.715 453.244V451.332C254.715 451.078 254.508 450.871 254.253 450.871Z" fill="#3F3D56"/>
<path d="M263.7 450.871H259.899C259.644 450.871 259.438 451.078 259.438 451.332V453.244C259.438 453.499 259.644 453.705 259.899 453.705H263.7C263.955 453.705 264.161 453.499 264.161 453.244V451.332C264.161 451.078 263.955 450.871 263.7 450.871Z" fill="#3F3D56"/>
<path d="M273.146 450.871H269.345C269.091 450.871 268.884 451.078 268.884 451.332V453.244C268.884 453.499 269.091 453.705 269.345 453.705H273.146C273.401 453.705 273.607 453.499 273.607 453.244V451.332C273.607 451.078 273.401 450.871 273.146 450.871Z" fill="#3F3D56"/>
<path d="M282.593 450.871H278.792C278.537 450.871 278.331 451.078 278.331 451.332V453.244C278.331 453.499 278.537 453.705 278.792 453.705H282.593C282.847 453.705 283.054 453.499 283.054 453.244V451.332C283.054 451.078 282.847 450.871 282.593 450.871Z" fill="#3F3D56"/>
<path d="M292.039 450.871H288.238C287.983 450.871 287.777 451.078 287.777 451.332V453.244C287.777 453.499 287.983 453.705 288.238 453.705H292.039C292.294 453.705 292.5 453.499 292.5 453.244V451.332C292.5 451.078 292.294 450.871 292.039 450.871Z" fill="#3F3D56"/>
<path d="M301.485 450.871H297.685C297.43 450.871 297.223 451.078 297.223 451.332V453.244C297.223 453.499 297.43 453.705 297.685 453.705H301.485C301.74 453.705 301.947 453.499 301.947 453.244V451.332C301.947 451.078 301.74 450.871 301.485 450.871Z" fill="#3F3D56"/>
<path d="M310.932 450.871H307.131C306.876 450.871 306.67 451.078 306.67 451.332V453.244C306.67 453.499 306.876 453.705 307.131 453.705H310.932C311.186 453.705 311.393 453.499 311.393 453.244V451.332C311.393 451.078 311.186 450.871 310.932 450.871Z" fill="#3F3D56"/>
<path d="M320.378 450.871H316.577C316.322 450.871 316.116 451.078 316.116 451.332V453.244C316.116 453.499 316.322 453.705 316.577 453.705H320.378C320.633 453.705 320.839 453.499 320.839 453.244V451.332C320.839 451.078 320.633 450.871 320.378 450.871Z" fill="#3F3D56"/>
<path d="M329.825 450.871H326.024C325.769 450.871 325.562 451.078 325.562 451.332V453.244C325.562 453.499 325.769 453.705 326.024 453.705H329.825C330.079 453.705 330.286 453.499 330.286 453.244V451.332C330.286 451.078 330.079 450.871 329.825 450.871Z" fill="#3F3D56"/>
<path d="M339.271 450.871H335.47C335.215 450.871 335.009 451.078 335.009 451.332V453.244C335.009 453.499 335.215 453.705 335.47 453.705H339.271C339.526 453.705 339.732 453.499 339.732 453.244V451.332C339.732 451.078 339.526 450.871 339.271 450.871Z" fill="#3F3D56"/>
<path d="M348.717 450.871H344.916C344.662 450.871 344.455 451.078 344.455 451.332V453.244C344.455 453.499 344.662 453.705 344.916 453.705H348.717C348.972 453.705 349.178 453.499 349.178 453.244V451.332C349.178 451.078 348.972 450.871 348.717 450.871Z" fill="#3F3D56"/>
<path d="M206.91 455.594H203.109C202.854 455.594 202.648 455.801 202.648 456.055V457.967C202.648 458.222 202.854 458.428 203.109 458.428H206.91C207.165 458.428 207.371 458.222 207.371 457.967V456.055C207.371 455.801 207.165 455.594 206.91 455.594Z" fill="#3F3D56"/>
<path d="M216.357 455.594H212.556C212.301 455.594 212.094 455.801 212.094 456.055V457.967C212.094 458.222 212.301 458.428 212.556 458.428H216.357C216.611 458.428 216.818 458.222 216.818 457.967V456.055C216.818 455.801 216.611 455.594 216.357 455.594Z" fill="#3F3D56"/>
<path d="M225.803 455.594H222.002C221.747 455.594 221.541 455.801 221.541 456.055V457.967C221.541 458.222 221.747 458.428 222.002 458.428H225.803C226.057 458.428 226.264 458.222 226.264 457.967V456.055C226.264 455.801 226.057 455.594 225.803 455.594Z" fill="#3F3D56"/>
<path d="M235.249 455.594H231.448C231.194 455.594 230.987 455.801 230.987 456.055V457.967C230.987 458.222 231.194 458.428 231.448 458.428H235.249C235.504 458.428 235.71 458.222 235.71 457.967V456.055C235.71 455.801 235.504 455.594 235.249 455.594Z" fill="#3F3D56"/>
<path d="M244.696 455.594H240.895C240.64 455.594 240.434 455.801 240.434 456.055V457.967C240.434 458.222 240.64 458.428 240.895 458.428H244.696C244.95 458.428 245.157 458.222 245.157 457.967V456.055C245.157 455.801 244.95 455.594 244.696 455.594Z" fill="#3F3D56"/>
<path d="M254.142 455.594H250.341C250.086 455.594 249.88 455.801 249.88 456.055V457.967C249.88 458.222 250.086 458.428 250.341 458.428H254.142C254.397 458.428 254.603 458.222 254.603 457.967V456.055C254.603 455.801 254.397 455.594 254.142 455.594Z" fill="#3F3D56"/>
<path d="M263.588 455.594H259.787C259.533 455.594 259.326 455.801 259.326 456.055V457.967C259.326 458.222 259.533 458.428 259.787 458.428H263.588C263.843 458.428 264.049 458.222 264.049 457.967V456.055C264.049 455.801 263.843 455.594 263.588 455.594Z" fill="#3F3D56"/>
<path d="M273.035 455.594H269.234C268.979 455.594 268.773 455.801 268.773 456.055V457.967C268.773 458.222 268.979 458.428 269.234 458.428H273.035C273.289 458.428 273.496 458.222 273.496 457.967V456.055C273.496 455.801 273.289 455.594 273.035 455.594Z" fill="#3F3D56"/>
<path d="M282.481 455.594H278.68C278.425 455.594 278.219 455.801 278.219 456.055V457.967C278.219 458.222 278.425 458.428 278.68 458.428H282.481C282.736 458.428 282.942 458.222 282.942 457.967V456.055C282.942 455.801 282.736 455.594 282.481 455.594Z" fill="#3F3D56"/>
<path d="M291.927 455.594H288.126C287.872 455.594 287.665 455.801 287.665 456.055V457.967C287.665 458.222 287.872 458.428 288.126 458.428H291.927C292.182 458.428 292.388 458.222 292.388 457.967V456.055C292.388 455.801 292.182 455.594 291.927 455.594Z" fill="#3F3D56"/>
<path d="M301.374 455.594H297.573C297.318 455.594 297.112 455.801 297.112 456.055V457.967C297.112 458.222 297.318 458.428 297.573 458.428H301.374C301.629 458.428 301.835 458.222 301.835 457.967V456.055C301.835 455.801 301.629 455.594 301.374 455.594Z" fill="#3F3D56"/>
<path d="M310.82 455.594H307.019C306.765 455.594 306.558 455.801 306.558 456.055V457.967C306.558 458.222 306.765 458.428 307.019 458.428H310.82C311.075 458.428 311.281 458.222 311.281 457.967V456.055C311.281 455.801 311.075 455.594 310.82 455.594Z" fill="#3F3D56"/>
<path d="M320.266 455.594H316.466C316.211 455.594 316.004 455.801 316.004 456.055V457.967C316.004 458.222 316.211 458.428 316.466 458.428H320.266C320.521 458.428 320.728 458.222 320.728 457.967V456.055C320.728 455.801 320.521 455.594 320.266 455.594Z" fill="#3F3D56"/>
<path d="M329.713 455.594H325.912C325.657 455.594 325.451 455.801 325.451 456.055V457.967C325.451 458.222 325.657 458.428 325.912 458.428H329.713C329.967 458.428 330.174 458.222 330.174 457.967V456.055C330.174 455.801 329.967 455.594 329.713 455.594Z" fill="#3F3D56"/>
<path d="M339.159 455.594H335.358C335.104 455.594 334.897 455.801 334.897 456.055V457.967C334.897 458.222 335.104 458.428 335.358 458.428H339.159C339.414 458.428 339.62 458.222 339.62 457.967V456.055C339.62 455.801 339.414 455.594 339.159 455.594Z" fill="#3F3D56"/>
<path d="M348.606 455.594H344.805C344.55 455.594 344.344 455.801 344.344 456.055V457.967C344.344 458.222 344.55 458.428 344.805 458.428H348.606C348.86 458.428 349.067 458.222 349.067 457.967V456.055C349.067 455.801 348.86 455.594 348.606 455.594Z" fill="#3F3D56"/>
<path d="M285.315 461.262H248.452C248.197 461.262 247.991 461.469 247.991 461.723V463.635C247.991 463.89 248.197 464.096 248.452 464.096H285.315C285.57 464.096 285.776 463.89 285.776 463.635V461.723C285.776 461.469 285.57 461.262 285.315 461.262Z" fill="#3F3D56"/>
<path d="M389.897 233.02H148.709C148.459 233.014 148.22 232.911 148.045 232.732C147.869 232.552 147.771 232.312 147.771 232.061C147.771 231.81 147.869 231.569 148.045 231.39C148.22 231.211 148.459 231.107 148.709 231.102H389.897C390.148 231.107 390.386 231.211 390.562 231.39C390.737 231.569 390.835 231.81 390.835 232.061C390.835 232.312 390.737 232.552 390.562 232.732C390.386 232.911 390.148 233.014 389.897 233.02Z" fill="#3F3D56"/>
<path d="M165.127 226.204C168.231 226.204 170.748 223.632 170.748 220.458C170.748 217.285 168.231 214.712 165.127 214.712C162.023 214.712 159.506 217.285 159.506 220.458C159.506 223.632 162.023 226.204 165.127 226.204Z" fill="#3F3D56"/>
<path d="M184.545 226.204C187.649 226.204 190.166 223.632 190.166 220.458C190.166 217.285 187.649 214.712 184.545 214.712C181.441 214.712 178.924 217.285 178.924 220.458C178.924 223.632 181.441 226.204 184.545 226.204Z" fill="#3F3D56"/>
<path d="M203.963 226.204C207.067 226.204 209.584 223.632 209.584 220.458C209.584 217.285 207.067 214.712 203.963 214.712C200.859 214.712 198.342 217.285 198.342 220.458C198.342 223.632 200.859 226.204 203.963 226.204Z" fill="#3F3D56"/>
<path d="M378.204 216.133H364.412C364.14 216.139 363.88 216.252 363.69 216.447C363.499 216.642 363.393 216.904 363.393 217.177C363.393 217.449 363.499 217.711 363.69 217.906C363.88 218.101 364.14 218.214 364.412 218.221H378.204C378.478 218.217 378.74 218.105 378.933 217.91C379.125 217.714 379.233 217.451 379.233 217.177C379.233 216.902 379.125 216.639 378.933 216.444C378.74 216.248 378.478 216.137 378.204 216.133Z" fill="#3F3D56"/>
<path d="M378.204 220.053H364.413C364.14 220.059 363.88 220.172 363.689 220.367C363.498 220.562 363.392 220.824 363.392 221.097C363.392 221.37 363.498 221.632 363.689 221.827C363.88 222.022 364.14 222.135 364.413 222.141H378.204C378.479 222.137 378.741 222.026 378.934 221.831C379.127 221.635 379.236 221.372 379.236 221.097C379.236 220.822 379.127 220.559 378.934 220.363C378.741 220.168 378.479 220.056 378.204 220.053Z" fill="#3F3D56"/>
<path d="M378.204 223.973H364.412C364.14 223.98 363.88 224.092 363.69 224.288C363.499 224.483 363.393 224.744 363.393 225.017C363.393 225.29 363.499 225.552 363.69 225.747C363.88 225.942 364.14 226.055 364.412 226.061H378.204C378.478 226.057 378.74 225.945 378.933 225.75C379.125 225.555 379.233 225.291 379.233 225.017C379.233 224.743 379.125 224.48 378.933 224.284C378.74 224.089 378.478 223.977 378.204 223.973Z" fill="#3F3D56"/>
<path d="M169.506 255.31H164.55C163.048 255.31 161.83 256.528 161.83 258.031C161.83 259.533 163.048 260.751 164.55 260.751H169.506C171.008 260.751 172.226 259.533 172.226 258.031C172.226 256.528 171.008 255.31 169.506 255.31Z" fill="#E6E6E6"/>
<path d="M226.184 255.31H221.228C219.726 255.31 218.508 256.528 218.508 258.031C218.508 259.533 219.726 260.751 221.228 260.751H226.184C227.687 260.751 228.905 259.533 228.905 258.031C228.905 256.528 227.687 255.31 226.184 255.31Z" fill="#E6E6E6"/>
<path d="M242.243 255.31H237.287C235.785 255.31 234.567 256.528 234.567 258.031C234.567 259.533 235.785 260.751 237.287 260.751H242.243C243.745 260.751 244.963 259.533 244.963 258.031C244.963 256.528 243.745 255.31 242.243 255.31Z" fill="#E6E6E6"/>
<path d="M210.767 254.856H179.967C178.464 254.856 177.246 256.074 177.246 257.577C177.246 259.079 178.464 260.298 179.967 260.298H210.767C212.27 260.298 213.488 259.079 213.488 257.577C213.488 256.074 212.27 254.856 210.767 254.856Z" fill="#E6E6E6"/>
<path d="M286.338 254.856H255.538C254.035 254.856 252.817 256.074 252.817 257.577C252.817 259.079 254.035 260.298 255.538 260.298H286.338C287.841 260.298 289.059 259.079 289.059 257.577C289.059 256.074 287.841 254.856 286.338 254.856Z" fill="#E6E6E6"/>
<path d="M184.62 267.59H179.664C178.162 267.59 176.944 268.808 176.944 270.311C176.944 271.813 178.162 273.031 179.664 273.031H184.62C186.123 273.031 187.341 271.813 187.341 270.311C187.341 268.808 186.123 267.59 184.62 267.59Z" fill="#E6E6E6"/>
<path d="M241.298 267.59H236.343C234.84 267.59 233.622 268.808 233.622 270.311C233.622 271.813 234.84 273.031 236.343 273.031H241.298C242.801 273.031 244.019 271.813 244.019 270.311C244.019 268.808 242.801 267.59 241.298 267.59Z" fill="#E6E6E6"/>
<path d="M257.357 267.59H252.401C250.899 267.59 249.681 268.808 249.681 270.311C249.681 271.813 250.899 273.031 252.401 273.031H257.357C258.86 273.031 260.078 271.813 260.078 270.311C260.078 268.808 258.86 267.59 257.357 267.59Z" fill="#E6E6E6"/>
<path d="M225.881 267.137H195.081C193.578 267.137 192.36 268.355 192.36 269.857C192.36 271.36 193.578 272.578 195.081 272.578H225.881C227.384 272.578 228.602 271.36 228.602 269.857C228.602 268.355 227.384 267.137 225.881 267.137Z" fill="#E6E6E6"/>
<path d="M301.453 267.137H270.652C269.149 267.137 267.931 268.355 267.931 269.857C267.931 271.36 269.149 272.578 270.652 272.578H301.453C302.955 272.578 304.173 271.36 304.173 269.857C304.173 268.355 302.955 267.137 301.453 267.137Z" fill="#E6E6E6"/>
<path d="M199.734 279.871H194.778C193.276 279.871 192.058 281.089 192.058 282.591C192.058 284.094 193.276 285.312 194.778 285.312H199.734C201.237 285.312 202.455 284.094 202.455 282.591C202.455 281.089 201.237 279.871 199.734 279.871Z" fill="#E6E6E6"/>
<path d="M256.412 279.871H251.457C249.954 279.871 248.736 281.089 248.736 282.591C248.736 284.094 249.954 285.312 251.457 285.312H256.412C257.915 285.312 259.133 284.094 259.133 282.591C259.133 281.089 257.915 279.871 256.412 279.871Z" fill="#E6E6E6"/>
<path d="M272.471 279.871H267.515C266.013 279.871 264.795 281.089 264.795 282.591C264.795 284.094 266.013 285.312 267.515 285.312H272.471C273.974 285.312 275.192 284.094 275.192 282.591C275.192 281.089 273.974 279.871 272.471 279.871Z" fill="#E6E6E6"/>
<path d="M240.996 279.417H210.195C208.693 279.417 207.475 280.635 207.475 282.138C207.475 283.64 208.693 284.858 210.195 284.858H240.996C242.498 284.858 243.716 283.64 243.716 282.138C243.716 280.635 242.498 279.417 240.996 279.417Z" fill="#E6E6E6"/>
<path d="M316.567 279.417H285.766C284.264 279.417 283.046 280.635 283.046 282.138C283.046 283.64 284.264 284.858 285.766 284.858H316.567C318.069 284.858 319.287 283.64 319.287 282.138C319.287 280.635 318.069 279.417 316.567 279.417Z" fill="#E6E6E6"/>
<path d="M214.848 292.151H209.893C208.39 292.151 207.172 293.369 207.172 294.871C207.172 296.374 208.39 297.592 209.893 297.592H214.848C216.351 297.592 217.569 296.374 217.569 294.871C217.569 293.369 216.351 292.151 214.848 292.151Z" fill="#E6E6E6"/>
<path d="M271.527 292.151H266.571C265.068 292.151 263.85 293.369 263.85 294.871C263.85 296.374 265.068 297.592 266.571 297.592H271.527C273.029 297.592 274.247 296.374 274.247 294.871C274.247 293.369 273.029 292.151 271.527 292.151Z" fill="#E6E6E6"/>
<path d="M287.585 292.151H282.63C281.127 292.151 279.909 293.369 279.909 294.871C279.909 296.374 281.127 297.592 282.63 297.592H287.585C289.088 297.592 290.306 296.374 290.306 294.871C290.306 293.369 289.088 292.151 287.585 292.151Z" fill="#E6E6E6"/>
<path d="M256.11 291.697H225.309C223.807 291.697 222.589 292.915 222.589 294.418C222.589 295.92 223.807 297.138 225.309 297.138H256.11C257.612 297.138 258.831 295.92 258.831 294.418C258.831 292.915 257.612 291.697 256.11 291.697Z" fill="#E6E6E6"/>
<path d="M226.184 340.982H221.228C219.726 340.982 218.508 342.201 218.508 343.703C218.508 345.206 219.726 346.424 221.228 346.424H226.184C227.687 346.424 228.905 345.206 228.905 343.703C228.905 342.201 227.687 340.982 226.184 340.982Z" fill="#E6E6E6"/>
<path d="M242.243 340.982H237.287C235.785 340.982 234.567 342.201 234.567 343.703C234.567 345.206 235.785 346.424 237.287 346.424H242.243C243.745 346.424 244.963 345.206 244.963 343.703C244.963 342.201 243.745 340.982 242.243 340.982Z" fill="#E6E6E6"/>
<path d="M286.338 341.436H255.538C254.035 341.436 252.817 342.654 252.817 344.157C252.817 345.659 254.035 346.877 255.538 346.877H286.338C287.841 346.877 289.059 345.659 289.059 344.157C289.059 342.654 287.841 341.436 286.338 341.436Z" fill="#E6E6E6"/>
<path d="M169.506 340.982H164.55C163.048 340.982 161.83 342.201 161.83 343.703C161.83 345.206 163.048 346.424 164.55 346.424H169.506C171.008 346.424 172.226 345.206 172.226 343.703C172.226 342.201 171.008 340.982 169.506 340.982Z" fill="#E6E6E6"/>
<path d="M210.767 341.436H179.967C178.464 341.436 177.246 342.654 177.246 344.157C177.246 345.659 178.464 346.877 179.967 346.877H210.767C212.27 346.877 213.488 345.659 213.488 344.157C213.488 342.654 212.27 341.436 210.767 341.436Z" fill="#E6E6E6"/>
<path d="M184.62 328.702H179.664C178.162 328.702 176.944 329.92 176.944 331.423C176.944 332.925 178.162 334.143 179.664 334.143H184.62C186.123 334.143 187.341 332.925 187.341 331.423C187.341 329.92 186.123 328.702 184.62 328.702Z" fill="#E6E6E6"/>
<path d="M241.298 328.702H236.343C234.84 328.702 233.622 329.92 233.622 331.423C233.622 332.925 234.84 334.143 236.343 334.143H241.298C242.801 334.143 244.019 332.925 244.019 331.423C244.019 329.92 242.801 328.702 241.298 328.702Z" fill="#E6E6E6"/>
<path d="M257.357 328.702H252.401C250.899 328.702 249.681 329.92 249.681 331.423C249.681 332.925 250.899 334.143 252.401 334.143H257.357C258.86 334.143 260.078 332.925 260.078 331.423C260.078 329.92 258.86 328.702 257.357 328.702Z" fill="#E6E6E6"/>
<path d="M225.881 329.156H195.081C193.578 329.156 192.36 330.374 192.36 331.876C192.36 333.379 193.578 334.597 195.081 334.597H225.881C227.384 334.597 228.602 333.379 228.602 331.876C228.602 330.374 227.384 329.156 225.881 329.156Z" fill="#E6E6E6"/>
<path d="M199.734 316.422H194.778C193.276 316.422 192.058 317.64 192.058 319.142C192.058 320.645 193.276 321.863 194.778 321.863H199.734C201.237 321.863 202.455 320.645 202.455 319.142C202.455 317.64 201.237 316.422 199.734 316.422Z" fill="#E6E6E6"/>
<path d="M256.412 316.422H251.457C249.954 316.422 248.736 317.64 248.736 319.142C248.736 320.645 249.954 321.863 251.457 321.863H256.412C257.915 321.863 259.133 320.645 259.133 319.142C259.133 317.64 257.915 316.422 256.412 316.422Z" fill="#E6E6E6"/>
<path d="M272.471 316.422H267.515C266.013 316.422 264.795 317.64 264.795 319.142C264.795 320.645 266.013 321.863 267.515 321.863H272.471C273.974 321.863 275.192 320.645 275.192 319.142C275.192 317.64 273.974 316.422 272.471 316.422Z" fill="#E6E6E6"/>
<path d="M240.996 316.875H210.195C208.693 316.875 207.475 318.094 207.475 319.596C207.475 321.099 208.693 322.317 210.195 322.317H240.996C242.498 322.317 243.716 321.099 243.716 319.596C243.716 318.094 242.498 316.875 240.996 316.875Z" fill="#E6E6E6"/>
<path d="M214.848 304.142H209.893C208.39 304.142 207.172 305.36 207.172 306.862C207.172 308.365 208.39 309.583 209.893 309.583H214.848C216.351 309.583 217.569 308.365 217.569 306.862C217.569 305.36 216.351 304.142 214.848 304.142Z" fill="#E6E6E6"/>
<path d="M271.527 304.142H266.571C265.068 304.142 263.85 305.36 263.85 306.862C263.85 308.365 265.068 309.583 266.571 309.583H271.527C273.029 309.583 274.247 308.365 274.247 306.862C274.247 305.36 273.029 304.142 271.527 304.142Z" fill="#E6E6E6"/>
<path d="M287.585 304.142H282.63C281.127 304.142 279.909 305.36 279.909 306.862C279.909 308.365 281.127 309.583 282.63 309.583H287.585C289.088 309.583 290.306 308.365 290.306 306.862C290.306 305.36 289.088 304.142 287.585 304.142Z" fill="#E6E6E6"/>
<path d="M256.11 304.595H225.309C223.807 304.595 222.589 305.813 222.589 307.316C222.589 308.818 223.807 310.036 225.309 310.036H256.11C257.612 310.036 258.831 308.818 258.831 307.316C258.831 305.813 257.612 304.595 256.11 304.595Z" fill="#E6E6E6"/>
<path d="M392.789 518.388C392.213 518.681 391.627 518.974 391.051 519.257C376.126 526.72 364.186 530.961 347.853 535.609C346.474 520.211 345.142 493.148 343.848 476.371C343.508 472.016 343.168 468.36 342.837 465.781C342.754 464.41 342.474 463.058 342.006 461.767L342.062 465.781L342.204 476.371L343.026 536.932C322.709 542.307 301.839 545.315 280.831 545.896C279.735 545.924 278.658 545.943 277.619 545.962C277.251 545.972 276.892 545.981 276.533 545.981C275.352 545.991 274.181 546 273 546C250.862 546.016 228.803 543.342 207.31 538.037C207.773 522.8 208.236 496.038 208.68 476.371C208.774 472.526 208.859 468.946 208.954 465.781C209.133 459.018 209.322 454.144 209.502 452.509C209.342 452.799 209.219 453.107 209.133 453.426C208.258 457.499 207.662 461.627 207.348 465.781C207.017 468.946 206.686 472.526 206.356 476.371C204.599 496.803 202.766 524.585 200.877 536.365C189.632 533.295 178.597 529.499 167.843 525.001C162.175 522.639 156.608 520.092 151.142 517.359C152.181 510.557 153.267 502.934 154.382 495.027C155.251 488.897 156.148 482.596 157.065 476.371C158.482 466.754 159.936 457.327 161.41 449.024C163.564 436.894 165.774 427.146 167.966 422.668C170.044 418.417 172.122 414.223 174.134 410.208C174.833 408.801 175.532 407.412 176.213 406.062C176.373 405.74 176.534 405.429 176.694 405.117C178.14 402.274 179.538 399.553 180.87 397.002C182.013 394.82 183.099 392.761 184.129 390.862C186.622 386.253 188.738 382.578 190.307 380.254C196.862 370.31 206.622 362.907 217.965 359.274L218.249 359.198L218.447 359.283L237.765 353.351L240.589 352.482L242.488 351.896L249.176 346.804L252.813 344.037L256.223 341.439L262.892 336.366L304.182 338.907L312.221 358.263L330.226 364.847L330.538 364.705L330.812 364.592L331.095 364.668C342.437 368.304 352.195 375.706 358.754 385.648C359.642 386.98 360.719 388.737 361.938 390.862C362.977 392.667 364.11 394.726 365.338 397.002C367.086 400.243 368.994 403.898 371.015 407.856C371.459 408.725 371.913 409.613 372.366 410.511C373.207 412.173 374.06 413.87 374.926 415.602C376.938 419.617 379.017 423.811 381.095 428.072C382.899 431.765 384.722 439.36 386.517 449.024C388 457.053 389.474 466.518 390.9 476.371C392.77 489.142 390.777 504.436 392.468 516.187C392.572 516.934 392.685 517.661 392.789 518.388Z" fill="#3F3D56"/>
<path d="M273.581 320.916C300.103 320.916 321.603 299.416 321.603 272.894C321.603 246.373 300.103 224.872 273.581 224.872C247.059 224.872 225.559 246.373 225.559 272.894C225.559 299.416 247.059 320.916 273.581 320.916Z" fill="#A0616A"/>
<path d="M352.774 209.256C351.825 207.04 350.562 204.972 349.024 203.116C341.732 194.208 328.469 190.288 314.857 200.83C312.237 200.244 309.505 200.401 306.969 201.283C305.772 201.717 304.65 202.335 303.644 203.116C301.583 204.724 299.975 206.839 298.977 209.256C298.444 210.532 298.094 211.877 297.938 213.252C294.573 211.503 291.012 210.162 287.33 209.256C278.295 207.009 268.848 207.009 259.813 209.256C256.918 209.988 254.13 211.093 251.519 212.543C247.098 215.094 244.557 218.315 244.103 221.895C237.727 222.254 231.096 225.608 226.155 231.105C225.598 231.719 225.06 232.362 224.559 233.023C220.404 238.459 218.171 245.121 218.211 251.963V253.163H219.411C222.698 253.159 225.954 253.795 228.999 255.033C230.972 255.826 232.84 256.857 234.563 258.103C235.689 258.903 236.754 259.787 237.746 260.748C240.047 262.976 241.996 265.54 243.527 268.352C247.452 275.46 248.813 283.702 247.381 291.694C247.053 293.544 246.573 295.364 245.945 297.135C245.053 299.663 243.877 302.081 242.441 304.343C242.384 304.428 242.337 304.513 242.28 304.598C241.647 305.609 241.043 306.639 240.476 307.678C240.051 308.452 239.654 309.246 239.286 310.039C238.209 312.248 237.3 314.534 236.565 316.878C235.251 321.025 234.476 325.324 234.26 329.669C234.194 330.821 234.175 331.974 234.213 333.126C234.269 336.097 234.595 339.056 235.186 341.968C235.271 342.365 235.356 342.752 235.441 343.149L236.131 346.162L237.765 353.351L238.899 358.301L239.947 362.892L241.496 360.672C242.025 359.916 243.357 357.592 245.143 354.305C246.323 352.161 247.693 349.601 249.176 346.805C251.245 342.884 253.512 338.511 255.732 334.146C256.629 332.38 257.517 330.623 258.377 328.904C260.002 325.645 261.532 322.499 262.845 319.703C264.054 317.124 265.084 314.838 265.849 313.005C266.085 314.205 266.284 315.424 266.435 316.652C266.605 317.899 266.727 319.164 266.794 320.43C266.813 320.619 266.822 320.818 266.831 321.007L266.869 321.781L266.879 322.008L267.88 322.14C273.655 322.759 279.477 322.803 285.261 322.272H285.271C292.933 321.695 300.45 319.874 307.526 316.878C311.545 315.135 315.298 312.832 318.673 310.039C320.25 308.734 321.722 307.306 323.075 305.77C323.415 305.382 323.746 304.995 324.067 304.598C325.936 302.301 327.537 299.797 328.837 297.136C329.708 295.379 330.447 293.561 331.048 291.694C334.675 280.708 334.467 267.002 330.424 250.716C331.516 250.506 332.562 250.103 333.513 249.526C336.479 247.741 338.539 244.198 339.181 239.872L340.201 240.146C343.818 238.461 347.04 236.034 349.657 233.023C350.175 232.41 350.661 231.77 351.112 231.105C355.731 224.304 355.769 216.142 352.774 209.256Z" fill="#2F2E41"/>
<path opacity="0.2" d="M194.897 448.982L202.924 418.005L210.012 444.735L194.897 448.982Z" fill="black"/>
<path d="M408.489 428.799C405.618 468.36 408.593 485.779 392.742 518.398C378.32 525.457 363.298 531.216 347.853 535.609C346.247 536.062 344.638 536.503 343.026 536.931C322.709 542.307 301.839 545.315 280.831 545.896C279.735 545.924 278.658 545.943 277.619 545.962C277.251 545.972 276.892 545.981 276.533 545.981C275.352 545.991 274.181 546 273 546C250.862 546.016 228.803 543.342 207.31 538.037C205.156 537.508 203.012 536.95 200.877 536.365C189.632 533.295 178.597 529.499 167.843 525.001C162.175 522.639 156.608 520.092 151.142 517.359C149.904 516.735 148.667 516.112 147.448 515.469C141.185 504.455 137.624 491.06 137.549 474.963C141.884 447.229 398.911 404.881 408.489 428.799Z" fill="#2F2E41"/>
<path opacity="0.2" d="M408.482 435.574C408.628 433.125 408.792 430.595 408.984 427.96C399.405 404.042 142.379 446.39 138.043 474.125C138.055 476.668 138.164 479.135 138.346 481.544C148.847 454.17 393.025 413.921 408.482 435.574Z" fill="black"/>
<path d="M154.066 323.209C154.129 322.353 154.007 321.493 153.709 320.687C153.412 319.882 152.945 319.149 152.341 318.539C151.736 317.929 151.008 317.456 150.206 317.151C149.403 316.846 148.544 316.716 147.687 316.771C147.368 316.783 147.05 316.823 146.738 316.889L109.177 325.375C108.338 325.578 107.55 325.955 106.865 326.482C106.181 327.008 105.614 327.672 105.201 328.431C104.65 328.451 104.103 328.531 103.569 328.668C102.401 328.933 101.295 329.425 100.317 330.118C99.3384 330.81 98.5058 331.688 97.8666 332.701C97.2275 333.715 96.7942 334.845 96.5917 336.026C96.3892 337.208 96.4213 338.417 96.6862 339.586C96.9512 340.755 97.4437 341.86 98.1358 342.839C98.8279 343.817 99.7059 344.65 100.72 345.289C102.767 346.58 105.244 347.004 107.604 346.469C108.948 346.158 110.205 345.549 111.283 344.689L124.011 380.529C124.647 381.652 125.629 382.54 126.811 383.058C127.993 383.577 129.311 383.699 130.568 383.407L154.986 377.889C156.233 377.597 157.356 376.917 158.193 375.946C159.03 374.976 159.538 373.766 159.644 372.489L154.066 323.209ZM107.041 343.918C105.355 344.298 103.587 343.994 102.125 343.073C100.662 342.152 99.625 340.689 99.2401 339.004C98.8552 337.319 99.1542 335.55 100.071 334.085C100.989 332.621 102.449 331.579 104.133 331.19C104.252 331.16 104.371 331.19 104.489 331.16C104.48 332.241 104.757 333.306 105.29 334.246L109.948 342.375C109.137 343.144 108.132 343.677 107.041 343.918Z" fill="#2F2E41"/>
<path d="M147.687 316.771C148.043 321.518 139.914 326.977 129.025 329.143C119.027 331.19 110.067 329.766 107.545 326.028C108.052 325.727 108.602 325.507 109.177 325.375L146.738 316.889C147.05 316.823 147.368 316.783 147.687 316.771Z" fill="#3F3D56"/>
<path d="M121.71 437.277L142.807 426.729L125.226 379.26L120.593 355.321C119.991 352.211 118.583 349.313 116.511 346.918C114.438 344.522 111.773 342.712 108.782 341.669C105.79 340.626 102.578 340.387 99.4648 340.974C96.352 341.562 93.4478 342.956 91.0426 345.018C87.4784 348.073 85.2405 352.393 84.8012 357.067C84.3619 361.74 85.7555 366.402 88.6881 370.068L105.887 391.567L121.71 437.277Z" fill="#A0616A"/>
<path d="M142.807 417.938L114.678 432.003L136.025 498.892C137.558 503.695 140.306 508.021 144.003 511.449C147.699 514.878 152.219 517.293 157.124 518.461C163.172 519.901 169.521 519.378 175.252 516.966C180.982 514.555 185.795 510.381 188.994 505.05L245.601 408.023C249.613 401.337 250.851 393.347 249.051 385.761C247.252 378.174 242.557 371.592 235.97 367.42C232.427 365.177 228.452 363.704 224.302 363.098C220.153 362.493 215.922 362.768 211.886 363.905C207.85 365.043 204.098 367.017 200.875 369.7C197.653 372.384 195.031 375.715 193.182 379.479L158.63 453.1L142.807 417.938Z" fill="#3F3D56"/>
<path d="M134.107 357.49C134.055 357.49 134.003 357.481 133.953 357.464L127.812 355.349C127.738 355.324 127.671 355.281 127.618 355.223C127.565 355.165 127.527 355.095 127.507 355.019C127.488 354.943 127.488 354.864 127.507 354.788C127.527 354.712 127.565 354.641 127.618 354.584L132.185 349.611C132.227 349.565 132.278 349.527 132.334 349.501C132.39 349.475 132.451 349.459 132.513 349.457C132.575 349.454 132.637 349.463 132.696 349.485C132.754 349.506 132.808 349.538 132.854 349.58C132.9 349.622 132.937 349.673 132.963 349.73C132.989 349.786 133.004 349.847 133.006 349.909C133.009 349.971 132.999 350.033 132.978 350.092C132.956 350.15 132.923 350.203 132.881 350.249L128.801 354.691L134.261 356.571C134.366 356.607 134.456 356.68 134.513 356.776C134.57 356.872 134.591 356.985 134.573 357.095C134.554 357.205 134.497 357.306 134.412 357.378C134.327 357.45 134.219 357.49 134.107 357.49Z" fill="#800080"/>
<path d="M142.525 355.766C142.431 355.766 142.339 355.738 142.261 355.686C142.183 355.633 142.123 355.558 142.087 355.471C142.052 355.384 142.044 355.288 142.063 355.196C142.083 355.104 142.129 355.02 142.197 354.955L146.348 350.941L140.771 348.643C140.714 348.619 140.662 348.585 140.618 348.541C140.574 348.497 140.539 348.445 140.515 348.388C140.491 348.331 140.479 348.269 140.479 348.207C140.478 348.145 140.49 348.084 140.514 348.026C140.538 347.969 140.573 347.917 140.616 347.873C140.66 347.829 140.712 347.794 140.77 347.77C140.827 347.746 140.888 347.734 140.95 347.734C141.012 347.734 141.074 347.746 141.131 347.77L147.375 350.343C147.447 350.373 147.511 350.42 147.561 350.481C147.61 350.542 147.644 350.614 147.659 350.691C147.674 350.768 147.669 350.847 147.645 350.922C147.622 350.997 147.58 351.064 147.523 351.119L142.854 355.634C142.766 355.719 142.648 355.766 142.525 355.766Z" fill="#800080"/>
<path d="M135.396 360.379C135.349 360.379 135.302 360.372 135.257 360.358C135.198 360.339 135.143 360.31 135.095 360.27C135.047 360.231 135.008 360.182 134.979 360.127C134.95 360.072 134.932 360.012 134.926 359.951C134.92 359.889 134.926 359.827 134.945 359.767L139.304 345.598C139.341 345.478 139.424 345.379 139.535 345.32C139.646 345.262 139.775 345.25 139.894 345.287C140.014 345.324 140.114 345.407 140.173 345.517C140.231 345.628 140.244 345.757 140.207 345.876L135.848 360.046C135.818 360.142 135.758 360.227 135.677 360.287C135.596 360.347 135.497 360.379 135.396 360.379Z" fill="#800080"/>
</g>
<defs>
<clipPath id="clip0_105_109">
<rect width="546" height="546" fill="white"/>
</clipPath>
</defs>
</svg>
