<svg width="93" height="105" viewBox="0 0 93 105" fill="none" xmlns="http://www.w3.org/2000/svg">
<path d="M46.165 0C22.5557 0 24.0299 11.6199 24.0299 11.6199L24.0561 23.6584H46.5859V27.2727H15.1076C15.1076 27.2727 0 25.3281 0 52.364C0 79.4007 13.1862 78.4419 13.1862 78.4419H21.0558V65.8958C21.0558 65.8958 20.6315 50.9303 34.0315 50.9303H56.3771C56.3771 50.9303 68.9315 51.1605 68.9315 37.1596V14.01C68.9315 14.01 70.8383 0 46.165 0ZM33.742 8.09568C34.2744 8.09514 34.8017 8.21375 35.2936 8.44473C35.7856 8.67571 36.2326 9.01452 36.6091 9.44178C36.9855 9.86904 37.284 10.3764 37.4876 10.9347C37.6911 11.493 37.7956 12.0915 37.7951 12.6957C37.7956 13.2999 37.6911 13.8983 37.4876 14.4567C37.284 15.015 36.9855 15.5223 36.6091 15.9496C36.2326 16.3769 35.7856 16.7157 35.2936 16.9466C34.8017 17.1776 34.2744 17.2962 33.742 17.2957C33.2096 17.2962 32.6823 17.1776 32.1904 16.9466C31.6984 16.7157 31.2514 16.3769 30.875 15.9496C30.4985 15.5223 30.2 15.015 29.9965 14.4567C29.7929 13.8983 29.6884 13.2999 29.6889 12.6957C29.6884 12.0915 29.7929 11.493 29.9965 10.9347C30.2 10.3764 30.4985 9.86904 30.875 9.44178C31.2514 9.01452 31.6984 8.67571 32.1904 8.44473C32.6823 8.21375 33.2096 8.09514 33.742 8.09568Z" fill="url(#paint0_linear_106_286)"/>
<path d="M46.8354 105C70.4446 105 68.9705 93.3801 68.9705 93.3801L68.9443 81.342H46.4141V77.7277H77.8924C77.8924 77.7277 93 79.6723 93 52.6356C93 25.5993 79.8138 26.5581 79.8138 26.5581H71.9442V39.1038C71.9442 39.1038 72.3685 54.0693 58.9685 54.0693H36.6229C36.6229 54.0693 24.0684 53.8391 24.0684 67.8404V90.9904C24.0684 90.9904 22.1624 105 46.8354 105ZM59.2584 96.9051C58.726 96.9057 58.1987 96.7871 57.7067 96.5561C57.2148 96.3251 56.7678 95.9863 56.3913 95.559C56.0149 95.1318 55.7163 94.6245 55.5128 94.0661C55.3093 93.5078 55.2048 92.9094 55.2053 92.3051C55.2047 91.7009 55.3092 91.1024 55.5127 90.544C55.7162 89.9856 56.0147 89.4783 56.3912 89.051C56.7677 88.6237 57.2147 88.2848 57.7066 88.0538C58.1986 87.8228 58.7259 87.7042 59.2584 87.7047C59.7908 87.7042 60.318 87.8228 60.81 88.0538C61.3019 88.2847 61.7489 88.6236 62.1254 89.0508C62.5019 89.4781 62.8004 89.9854 63.0039 90.5437C63.2074 91.1021 63.3119 91.7005 63.3115 92.3047C63.3119 92.909 63.2074 93.5074 63.0039 94.0657C62.8004 94.6241 62.5019 95.1314 62.1254 95.5586C61.7489 95.9859 61.3019 96.3247 60.81 96.5557C60.318 96.7867 59.7908 96.9057 59.2584 96.9051Z" fill="url(#paint1_linear_106_286)"/>
<defs>
<linearGradient id="paint0_linear_106_286" x1="1205.19" y1="1264.09" x2="8148.8" y2="7366.38" gradientUnits="userSpaceOnUse">
<stop stop-color="#387EB8"/>
<stop offset="1" stop-color="#366994"/>
</linearGradient>
<linearGradient id="paint1_linear_106_286" x1="1343.21" y1="1640.9" x2="6876.54" y2="6249.83" gradientUnits="userSpaceOnUse">
<stop stop-color="#FFE052"/>
<stop offset="1" stop-color="#FFC331"/>
</linearGradient>
</defs>
</svg>
