<svg width="111" height="105" viewBox="0 0 111 105" fill="none" xmlns="http://www.w3.org/2000/svg">
<path d="M55.5469 63.2066C61.0785 63.2066 65.5628 58.4131 65.5628 52.5C65.5628 46.5869 61.0785 41.7934 55.5469 41.7934C50.0152 41.7934 45.5309 46.5869 45.5309 52.5C45.5309 58.4131 50.0152 63.2066 55.5469 63.2066Z" fill="#61DAFB"/>
<path d="M93.59 34.8435C91.6571 34.0921 89.6363 33.3408 87.5277 32.6834C88.0549 30.4293 88.4942 28.1753 88.8456 26.0152C90.6907 13.6181 88.6699 4.88372 83.0469 1.50268C81.3775 0.469588 79.5325 0 77.4239 0C71.2737 0 63.4542 4.88372 55.5469 13.0546C47.6395 4.88372 39.82 0 33.6699 0C31.5613 0 29.7162 0.469588 28.0469 1.50268C22.4239 4.97764 20.4031 13.712 22.2482 26.0152C22.5996 28.1753 23.0389 30.4293 23.566 32.6834C21.4574 33.3408 19.4367 33.9982 17.5037 34.8435C6.52132 39.3515 0.546875 45.5501 0.546875 52.5C0.546875 59.4499 6.60918 65.6485 17.5037 70.1565C19.4367 70.9079 21.4574 71.6592 23.566 72.3166C23.0389 74.5707 22.5996 76.8247 22.2482 78.9848C20.4031 91.3819 22.4239 100.116 28.0469 103.497C29.7162 104.53 31.5613 105 33.6699 105C39.9079 105 47.7274 100.116 55.5469 91.9454C63.4542 100.116 71.2737 105 77.4239 105C79.5325 105 81.3775 104.53 83.0469 103.497C88.6699 100.022 90.6907 91.288 88.8456 78.9848C88.4942 76.8247 88.0549 74.5707 87.5277 72.3166C89.6363 71.6592 91.6571 71.0018 93.59 70.1565C104.572 65.6485 110.547 59.4499 110.547 52.5C110.547 45.5501 104.572 39.3515 93.59 34.8435ZM80.5868 6.19857C84.1891 8.45259 85.4191 15.4025 83.9255 25.2639C83.6619 27.2361 83.2226 29.3023 82.6954 31.4624C78.1268 30.3354 73.2945 29.5841 68.1986 29.1145C65.2114 24.6064 62.1363 20.568 59.0613 16.9052C65.5629 10.0492 72.1523 5.35331 77.5117 5.35331C78.6539 5.35331 79.7082 5.63506 80.5868 6.19857ZM70.7466 61.8918C69.1651 64.8971 67.32 67.9025 65.3871 70.9079C62.1363 71.1896 58.8855 71.2835 55.5469 71.2835C52.1204 71.2835 48.8696 71.1896 45.7066 70.9079C43.7737 67.9025 42.0165 64.8971 40.4351 61.8918C38.7657 58.7925 37.1843 55.5993 35.7785 52.5C37.1843 49.4007 38.7657 46.2075 40.4351 43.1082C42.0165 40.1029 43.8616 37.0975 45.7945 34.0921C49.0453 33.8104 52.2961 33.7165 55.6347 33.7165C59.0613 33.7165 62.3121 33.8104 65.475 34.0921C67.4079 37.0975 69.1651 40.1029 70.7466 43.1082C72.4159 46.2075 73.9974 49.4007 75.4031 52.5C73.9095 55.5993 72.4159 58.6986 70.7466 61.8918ZM78.0389 58.7925C79.3568 62.0796 80.4111 65.2728 81.3776 68.466C78.3903 69.2174 75.2274 69.7809 71.8887 70.2505C72.943 68.466 74.0852 66.5877 75.0517 64.6154C76.106 62.6431 77.0724 60.6708 78.0389 58.7925ZM55.5469 84.2442C53.4383 81.8023 51.4175 79.1726 49.4846 76.449C51.5053 76.5429 53.5261 76.6368 55.5469 76.6368C57.5676 76.6368 59.5884 76.5429 61.6092 76.449C59.6763 79.1726 57.6555 81.8023 55.5469 84.2442ZM39.205 70.1565C35.8664 69.6869 32.7034 69.1234 29.7162 68.3721C30.6827 65.2728 31.737 61.9857 33.0549 58.6986C34.0213 60.5769 34.9878 62.5492 36.0421 64.4275C37.0964 66.4937 38.1507 68.2782 39.205 70.1565ZM33.0549 46.2075C31.737 42.9204 30.6827 39.7272 29.7162 36.534C32.7034 35.7826 35.8664 35.2191 39.205 34.7496C38.1507 36.534 37.0085 38.4123 36.0421 40.3846C34.9878 42.3569 34.0213 44.3292 33.0549 46.2075ZM55.5469 20.7558C57.6555 23.1977 59.6763 25.8274 61.6092 28.551C59.5884 28.4571 57.5676 28.3631 55.5469 28.3631C53.5261 28.3631 51.5053 28.4571 49.4846 28.551C51.4175 25.8274 53.4383 23.1977 55.5469 20.7558ZM75.0517 40.4785L71.8887 34.8435C75.2274 35.3131 78.3903 35.8766 81.3776 36.6279C80.4111 39.7272 79.3568 43.0143 78.0389 46.3014C77.0724 44.3292 76.106 42.3569 75.0517 40.4785ZM27.1683 25.2639C25.6747 15.4025 26.9047 8.45259 30.5069 6.19857C31.3855 5.63506 32.4398 5.35331 33.582 5.35331C38.8536 5.35331 45.443 9.95528 52.0325 16.9052C48.9574 20.4741 45.8823 24.6064 42.8951 29.1145C37.7993 29.5841 32.967 30.4293 28.3983 31.4624C27.8712 29.3023 27.5197 27.2361 27.1683 25.2639ZM5.467 52.5C5.467 48.0859 10.475 43.39 19.2609 39.915C21.0181 39.1637 22.951 38.5063 24.8839 37.9428C26.2897 42.6386 28.0469 47.6163 30.1555 52.5939C28.0469 57.5716 26.2018 62.4553 24.8839 67.1512C12.7593 63.3945 5.467 57.7594 5.467 52.5ZM30.5069 98.8014C26.9047 96.5474 25.6747 89.5975 27.1683 79.7361C27.4319 77.7639 27.8712 75.6977 28.3983 73.5376C32.967 74.6646 37.7993 75.4159 42.8951 75.8855C45.8823 80.3936 48.9574 84.432 52.0325 88.0948C45.5309 94.9508 38.9414 99.6467 33.582 99.6467C32.4398 99.6467 31.3855 99.3649 30.5069 98.8014ZM83.9255 79.7361C85.4191 89.5975 84.1891 96.5474 80.5868 98.8014C79.7082 99.3649 78.6539 99.6467 77.5117 99.6467C72.2402 99.6467 65.6507 95.0447 59.0613 88.0948C62.1363 84.5259 65.2114 80.3936 68.1986 75.8855C73.2945 75.4159 78.1268 74.5707 82.6954 73.5376C83.2226 75.6977 83.574 77.7639 83.9255 79.7361ZM91.8328 65.085C90.0756 65.8363 88.1427 66.4937 86.2098 67.0572C84.8041 62.3614 83.0469 57.3837 80.9383 52.4061C83.0469 47.4284 84.8919 42.5447 86.2098 37.8488C98.3344 41.6055 105.627 47.2406 105.627 52.5C105.627 56.9141 100.531 61.61 91.8328 65.085Z" fill="#61DAFB"/>
</svg>
